<svg xmlns="http://www.w3.org/2000/svg" viewBox="0 0 880 400" role="img" aria-label="타임블로킹 4단계: 우선순위 정하기 · 블록 배치 · 버퍼 남기기 · 회고">
  <rect width="880" height="400" rx="20" fill="#f5f8fb"/>
  <text x="440" y="46" text-anchor="middle" fill="#1a2332" font-family="sans-serif" font-size="22" font-weight="800">할 일 목록 대신, 타임블로킹</text>
  <text x="440" y="74" text-anchor="middle" fill="#105d9e" font-family="sans-serif" font-size="14" font-weight="700">'무엇을'에 '언제'를 더하는 4단계</text>
  <defs>
    <marker id="tbA" markerWidth="12" markerHeight="12" refX="8" refY="6" orient="auto"><path d="M0,0 L10,6 L0,12 Z" fill="#105d9e"/></marker>
  </defs>
  <line x1="148" y1="218" x2="742" y2="218" stroke="#105d9e" stroke-width="3" stroke-dasharray="2 8" stroke-linecap="round" marker-end="url(#tbA)"/>
  <g>
    <circle cx="140" cy="218" r="34" fill="#1a2332"/>
    <text x="140" y="227" text-anchor="middle" fill="#fff" font-family="sans-serif" font-size="22" font-weight="800">1</text>
    <text x="140" y="278" text-anchor="middle" fill="#1a2332" font-family="sans-serif" font-size="13" font-weight="800">우선순위</text>
    <text x="140" y="297" text-anchor="middle" fill="#5b6b82" font-family="sans-serif" font-size="11">오늘의 top 3</text>
  </g>
  <g>
    <circle cx="340" cy="218" r="34" fill="#105d9e"/>
    <text x="340" y="227" text-anchor="middle" fill="#fff" font-family="sans-serif" font-size="22" font-weight="800">2</text>
    <text x="340" y="278" text-anchor="middle" fill="#1a2332" font-family="sans-serif" font-size="13" font-weight="800">블록 배치</text>
    <text x="340" y="297" text-anchor="middle" fill="#5b6b82" font-family="sans-serif" font-size="11">캘린더에 넣기</text>
  </g>
  <g>
    <circle cx="540" cy="218" r="34" fill="#3f7cb3"/>
    <text x="540" y="227" text-anchor="middle" fill="#fff" font-family="sans-serif" font-size="22" font-weight="800">3</text>
    <text x="540" y="278" text-anchor="middle" fill="#1a2332" font-family="sans-serif" font-size="13" font-weight="800">버퍼 남기기</text>
    <text x="540" y="297" text-anchor="middle" fill="#5b6b82" font-family="sans-serif" font-size="11">60~70%만 채움</text>
  </g>
  <g>
    <circle cx="740" cy="218" r="34" fill="#568a35"/>
    <text x="740" y="227" text-anchor="middle" fill="#fff" font-family="sans-serif" font-size="22" font-weight="800">4</text>
    <text x="740" y="278" text-anchor="middle" fill="#1a2332" font-family="sans-serif" font-size="13" font-weight="800">회고</text>
    <text x="740" y="297" text-anchor="middle" fill="#5b6b82" font-family="sans-serif" font-size="11">시간 흐름 점검</text>
  </g>
  <g font-family="sans-serif">
    <rect x="118" y="120" width="644" height="34" rx="8" fill="#e7eef6"/>
    <rect x="122" y="124" width="150" height="26" rx="5" fill="#1a2332"/>
    <text x="197" y="142" text-anchor="middle" fill="#fff" font-size="12" font-weight="700">집중 작업 90분</text>
    <rect x="278" y="124" width="96" height="26" rx="5" fill="#105d9e"/>
    <text x="326" y="142" text-anchor="middle" fill="#fff" font-size="12" font-weight="700">메일·잡무</text>
    <rect x="380" y="124" width="70" height="26" rx="5" fill="#d99a00"/>
    <text x="415" y="142" text-anchor="middle" fill="#fff" font-size="12" font-weight="700">버퍼</text>
    <rect x="456" y="124" width="130" height="26" rx="5" fill="#3f7cb3"/>
    <text x="521" y="142" text-anchor="middle" fill="#fff" font-size="12" font-weight="700">회의</text>
    <rect x="592" y="124" width="70" height="26" rx="5" fill="#d99a00"/>
    <text x="627" y="142" text-anchor="middle" fill="#fff" font-size="12" font-weight="700">버퍼</text>
    <rect x="668" y="124" width="90" height="26" rx="5" fill="#568a35"/>
    <text x="713" y="142" text-anchor="middle" fill="#fff" font-size="12" font-weight="700">회고 15분</text>
  </g>
</svg>
